<?xml version="1.0" encoding="UTF-8"?>
<svg width="512px" height="512px" viewBox="0 0 512 512" version="1.1" xmlns="http://www.w3.org/2000/svg" xmlns:xlink="http://www.w3.org/1999/xlink">
    <g id="Icon" stroke="none" stroke-width="1" fill="none" fill-rule="evenodd">
        <path d="M76.916556,15 C54.7965279,15 46.4105878,16.6193997 37.7686118,21.2411791 C30.6048611,25.0723949 25.0723949,30.6048611 21.2411791,37.7686118 C16.6193997,46.4105878 15,54.7965279 15,76.916556 L15,435.083444 C15,457.203472 16.6193997,465.589412 21.2411791,474.231388 C25.0723949,481.395139 30.6048611,486.927605 37.7686118,490.758821 C46.4105878,495.3806 54.7965279,497 76.916556,497 L435.083444,497 C457.203472,497 465.589412,495.3806 474.231388,490.758821 C481.395139,486.927605 486.927605,481.395139 490.758821,474.231388 C495.3806,465.589412 497,457.203472 497,435.083444 L497,76.916556 C497,54.7965279 495.3806,46.4105878 490.758821,37.7686118 C486.927605,30.6048611 481.395139,25.0723949 474.231388,21.2411791 C465.589412,16.6193997 457.203472,15 435.083444,15 L76.916556,15 Z" id="Rectangle" stroke="#D08771" stroke-width="30" fill="#2E3440"></path>
        <rect id="Rectangle-Copy" fill="#D08771" x="256" y="81" width="180" height="30"></rect>
        <rect id="Rectangle-Copy-2" fill="#D08771" x="256" y="209" width="180" height="30"></rect>
        <rect id="Rectangle-Copy-4" fill="#D08771" x="76" y="273" width="360" height="30"></rect>
        <rect id="Rectangle-Copy-5" fill="#D08771" x="76" y="401" width="360" height="30"></rect>
        <rect id="Rectangle-Copy-6" fill="#D08771" x="76" y="337" width="360" height="30"></rect>
        <rect id="Rectangle-Copy-3" fill="#D08771" x="256" y="145" width="180" height="30"></rect>
        <text id="N" font-family="HelveticaNeue-Bold, Helvetica Neue" font-size="221" font-weight="bold" fill="#D08771">
            <tspan x="64" y="239">N</tspan>
        </text>
    </g>
</svg>
