<?xml version="1.0" encoding="UTF-8"?>
<svg width="512px" height="512px" viewBox="0 0 512 512" version="1.1" xmlns="http://www.w3.org/2000/svg" xmlns:xlink="http://www.w3.org/1999/xlink">
    <g id="logo6" stroke="none" stroke-width="1" fill="none" fill-rule="evenodd">
        <path d="M153.833112,15 C107.328585,15 88.2173417,18.6905513 68.4632407,29.2551602 C51.5217122,38.3155888 38.3155888,51.5217122 29.2551602,68.4632407 C18.6905513,88.2173417 15,107.328585 15,153.833112 L15,358.166888 C15,404.671415 18.6905513,423.782658 29.2551602,443.536759 C38.3155888,460.478288 51.5217122,473.684411 68.4632407,482.74484 C88.2173417,493.309449 107.328585,497 153.833112,497 L358.166888,497 C404.671415,497 423.782658,493.309449 443.536759,482.74484 C460.478288,473.684411 473.684411,460.478288 482.74484,443.536759 C493.309449,423.782658 497,404.671415 497,358.166888 L497,153.833112 C497,107.328585 493.309449,88.2173417 482.74484,68.4632407 C473.684411,51.5217122 460.478288,38.3155888 443.536759,29.2551602 C423.782658,18.6905513 404.671415,15 358.166888,15 L153.833112,15 Z" id="Rectangle" stroke="#D08771" stroke-width="30" fill="#2E3440"></path>
        <text id="N" font-family="HiraMaruPro-W4, Hiragino Maru Gothic Pro" font-size="340" font-weight="normal" fill="#D08771">
            <tspan x="123.57" y="389">N</tspan>
        </text>
    </g>
</svg>
